PathFileType	4	(X/Y/Z)	D:\Share\Shared_Data\Ergonomics\Sit To Stand Pertubation\S1\Perturbed_NoHarness.trc
DataRate	CameraRate	NumFrames	NumMarkers	Units	OrigDataRate	OrigDataStartFrame	OrigNumFrames	
100	100	17	18	m	100	2505	171
Frame#	Time	L_ASIS			R_ASIS			R_Pelvis			V_Sacral			L_Pelvis			Clavical			R_Acromium			L_Acromium			Sternum			Torso			R_Thigh_Med			R_Thigh_Lat			R_Thigh			R_Shank_Med			R_Shank_Lat			R_Shank			R_Heel			R_Toe			
		X1	Y1	Z1	X2	Y2	Z2	X3	Y3	Z3	X4	Y4	Z4	X5	Y5	Z5	X6	Y6	Z6	X7	Y7	Z7	X8	Y8	Z8	X9	Y9	Z9	X10	Y10	Z10	X11	Y11	Z11	X12	Y12	Z12	X13	Y13	Z13	X14	Y14	Z14	X15	Y15	Z15	X16	Y16	Z16	X17	Y17	Z17	X18	Y18	Z18	

2505	25.04	0.17340579	0.62377032	-0.09182972	0.068827209	0.662867	0.13669266	0.14746275	0.62118744	0.10884354	-0.048760303	0.63376593	0.0060191445	0.081320229	0.65441632	-0.13146869	0.38872748	0.85170361	0.00043224812	0.38454138	0.95838654	0.13718733	0.31996033	0.94611377	-0.19398668	0.37666208	0.88008038	0.097874977	0.38440137	0.86510693	-0.052737068	0.3763775	0.40525912	0.032883221	0.37920422	0.42609595	0.15409546	0.26614981	0.55883661	0.10372644	0.33719843	0.091928665	0.094674355	0.31272061	0.098660065	0.17422208	0.35503519	0.3062334	0.17673848	0.26074792	0.03267429	0.1219414	0.4659939	0.054771519	0.14426157
2506	25.05	0.17767511	0.62588348	-0.092168312	0.073253532	0.66457208	0.13707346	0.15194492	0.62299438	0.108524	-0.044118645	0.63558099	0.0061494594	0.085593544	0.65615643	-0.13172298	0.39101111	0.85620129	0.00026614422	0.38588211	0.96302734	0.13739235	0.32147971	0.94982428	-0.19454086	0.37889609	0.88465253	0.097651978	0.38666443	0.86962909	-0.053055206	0.3799967	0.40424631	0.031083609	0.38349765	0.42532095	0.15235287	0.27129312	0.55896869	0.10260664	0.33757428	0.091595451	0.094049866	0.31343939	0.0987882	0.17368753	0.35803564	0.30585165	0.17536638	0.26089429	0.032834717	0.12194553	0.46606519	0.054427303	0.14406451
2507	25.06	0.1818551	0.62829626	-0.092476242	0.077609734	0.66655798	0.13746585	0.15633276	0.62511182	0.10823318	-0.039558159	0.63771295	0.0062788305	0.089787453	0.65819165	-0.13198738	0.39315594	0.8610575	9.3031935e-05	0.38704617	0.96799609	0.13765002	0.32281598	0.95394299	-0.19507845	0.38096429	0.88958521	0.097447289	0.38875479	0.87453058	-0.053367836	0.38339685	0.40325171	0.029261271	0.38758383	0.42456213	0.15056863	0.27632184	0.55920654	0.10146252	0.33789471	0.091268044	0.093430618	0.3141192	0.098915512	0.17315402	0.36088022	0.30546558	0.17398047	0.26103073	0.032980675	0.12194781	0.46614383	0.054101097	0.14388707
2508	25.07	0.18595221	0.63100787	-0.092739929	0.081891823	0.66882465	0.13786211	0.16062413	0.62755579	0.10797785	-0.035078102	0.64015869	0.0063982797	0.093906517	0.66051874	-0.13226826	0.39516226	0.86626703	-8.859098e-05	0.38804227	0.97327759	0.13794283	0.32398206	0.95845746	-0.19559639	0.38287158	0.89486255	0.097255798	0.3906796	0.87979688	-0.05367437	0.38657275	0.40228201	0.027435642	0.39145432	0.42382617	0.14876079	0.28123352	0.55955481	0.10030582	0.33816431	0.090948883	0.092822037	0.31475769	0.099040619	0.1726261	0.36356036	0.30507761	0.1725946	0.26115607	0.033111614	0.12194741	0.46623227	0.053794746	0.14373978
2509	25.08	0.18997467	0.63401282	-0.092949326	0.086097206	0.67136676	0.13825446	0.16481911	0.63033527	0.10776237	-0.030675898	0.64290955	0.006498837	0.097956787	0.66313043	-0.13257213	0.39702811	0.87182611	-0.0002799356	0.38887527	0.97885779	0.13825197	0.3249877	0.96335107	-0.19609283	0.38462131	0.90046906	0.097072159	0.39244485	0.88541284	-0.053974899	0.38952304	0.40134311	0.025625713	0.39510501	0.42311896	0.14694716	0.28602798	0.5600144	0.099148888	0.33838815	0.090640106	0.092229019	0.31535364	0.099162338	0.17210785	0.36607077	0.30469019	0.17122226	0.26126944	0.033227478	0.12194352	0.46633267	0.053510296	0.14363306
2510	25.09	0.19393181	0.637302	-0.093099159	0.090224846	0.67417444	0.13863539	0.16891975	0.63345209	0.1075881	-0.026347336	0.64595197	0.0065716496	0.10194571	0.66601569	-0.13290511	0.39875031	0.87773163	-0.00048177344	0.38954703	0.98472394	0.13855963	0.32583997	0.96860345	-0.19656685	0.38621631	0.90638904	0.096891594	0.39405582	0.89136285	-0.054270046	0.39225006	0.40044009	0.023849619	0.39853564	0.4224455	0.14514543	0.2907063	0.56058325	0.098004173	0.33857144	0.090343559	0.091655823	0.31590634	0.099279617	0.17160306	0.36840945	0.30430554	0.1698764	0.26137048	0.033328636	0.12193541	0.46644669	0.053250252	0.14357645
2511	25.1	0.19783369	0.6408631	-0.093189789	0.094275414	0.67723462	0.13899806	0.1729303	0.63690057	0.10745315	-0.022086798	0.64926904	0.0066080651	0.10588181	0.66916107	-0.13327267	0.40032501	0.88397943	-0.00069430631	0.39005725	0.99086359	0.13885054	0.32654364	0.97419067	-0.19701862	0.38765906	0.91260693	0.096710365	0.39551709	0.89763049	-0.054560734	0.39475931	0.39957739	0.02212429	0.40174918	0.42181018	0.14337257	0.29526996	0.56125574	0.09688398	0.33871945	0.090060791	0.091106171	0.31641614	0.099391502	0.17111505	0.37057684	0.30392599	0.16856931	0.26145901	0.033415806	0.12192255	0.46657529	0.053017586	0.1435777
2512	25.11	0.20169063	0.64468225	-0.093227196	0.098251183	0.68053247	0.13933649	0.17685667	0.64066864	0.10735256	-0.017887491	0.65284088	0.0065996809	0.10977441	0.67255115	-0.13367938	0.4017489	0.89056293	-0.00091707063	0.39040433	0.99726471	0.13911334	0.32710178	0.98008557	-0.19744922	0.38895242	0.91910651	0.096526237	0.3968331	0.90419904	-0.054848026	0.39705899	0.3987587	0.020465137	0.40475131	0.42121649	0.14164476	0.29972028	0.56202332	0.095800102	0.3388374	0.089793076	0.090583221	0.31688376	0.099497177	0.17064688	0.37257587	0.30355359	0.16731239	0.2615354	0.033489944	0.12190456	0.46671851	0.052815559	0.14364186
2513	25.12	0.20551268	0.64874396	-0.093222168	0.10215588	0.68405164	0.13964561	0.18070628	0.64473834	0.1072787	-0.013741707	0.65664545	0.0065383654	0.1136333	0.67616907	-0.13412851	0.40301947	0.89747241	-0.0011488904	0.39058566	1.0039147	0.13934103	0.32751642	0.98625842	-0.19786043	0.39009958	0.92587115	0.096338615	0.39800815	0.91105121	-0.055132946	0.39915924	0.3979874	0.01888582	0.40754962	0.42066718	0.1399771	0.3040578	0.56287469	0.094763412	0.33893018	0.089541443	0.090089592	0.31731058	0.099595932	0.17020113	0.37441113	0.30319028	0.16611603	0.26160016	0.033552181	0.12188138	0.46687515	0.052647305	0.14377036
2514	25.13	0.20930956	0.65303259	-0.093189056	0.10599458	0.68777576	0.13992146	0.18448767	0.64908752	0.10722204	-0.0096410303	0.66066016	0.0064162731	0.11746848	0.67999707	-0.13462209	0.40413538	0.90469342	-0.0013878896	0.39059857	1.0108006	0.13953125	0.32778873	0.9926781	-0.19825471	0.39110422	0.93288416	0.096148521	0.39904645	0.91816882	-0.055416306	0.40107178	0.39726608	0.017398069	0.41015302	0.4201644	0.13838344	0.30828207	0.56379626	0.093783623	0.33900235	0.089306648	0.089627457	0.31769806	0.099687195	0.16978003	0.37608853	0.30283801	0.16498936	0.26165408	0.033603752	0.12185318	0.46704294	0.05251511	0.14396033
2515	25.14	0.21309035	0.65753247	-0.093143929	0.10977319	0.69168854	0.14016072	0.18821002	0.65369104	0.10717192	-0.0055765634	0.66486182	0.0062258682	0.12128978	0.6840174	-0.13516063	0.40509683	0.91220721	-0.0016315705	0.39044058	1.0179083	0.13968562	0.32791962	0.99931213	-0.19863495	0.39197028	0.9401283	0.095958389	0.39995221	0.92553381	-0.055698608	0.40280887	0.39659732	0.016011538	0.41257092	0.41970978	0.13687605	0.31239163	0.5647735	0.092868904	0.33905801	0.089089264	0.089198547	0.3180481	0.099770493	0.16938559	0.37761456	0.30249854	0.1639402	0.26169803	0.033645912	0.12182042	0.46721826	0.052419651	0.14420416
2516	25.15	0.21686348	0.66222797	-0.093102844	0.11349832	0.69577417	0.14036064	0.19188283	0.65852246	0.10711762	-0.0015391136	0.66922809	0.0059599943	0.1251067	0.6882124	-0.1357435	0.40590555	0.91999084	-0.0018769501	0.39010995	1.025223	0.13980899	0.32790976	1.006129	-0.19900446	0.39270172	0.94758636	0.095771698	0.40072968	0.9331275	-0.055979965	0.40438287	0.39598325	0.014733747	0.41481274	0.41930432	0.13546553	0.31638434	0.56579144	0.092025581	0.33910068	0.088889694	0.088804161	0.3183623	0.09984552	0.16901938	0.37899612	0.3021738	0.16297487	0.26173318	0.033679886	0.12178386	0.46739621	0.052359135	0.1444895
2517	25.16	0.22063666	0.66710468	-0.093080292	0.11717684	0.7000177	0.14051849	0.19551543	0.6635553	0.10704906	0.0024806278	0.67373785	0.00561202	0.12892818	0.69256494	-0.13636896	0.4065647	0.92801807	-0.0021207485	0.38960583	1.0327286	0.13990836	0.32775998	1.0130979	-0.19936668	0.39330237	0.95524097	0.095592644	0.40138309	0.94093115	-0.056260128	0.4058056	0.39542569	0.01357004	0.41688727	0.41894873	0.13416057	0.32025778	0.56683575	0.091257889	0.33913345	0.088708183	0.088445244	0.31864243	0.099912102	0.16868274	0.38024005	0.30186557	0.1620981	0.26176044	0.033706818	0.12174446	0.46757083	0.052328651	0.14479951
2518	25.17	0.22441672	0.67214832	-0.093088005	0.12081564	0.70440454	0.1406313	0.1991167	0.66876428	0.10695757	0.0064918976	0.67837213	0.0051760759	0.13276225	0.69705933	-0.13703448	0.40707883	0.93626062	-0.0023596079	0.38892877	1.040408	0.13999167	0.32747113	1.0201906	-0.19972549	0.3937756	0.96307489	0.095425613	0.40191653	0.9489256	-0.05653849	0.40708762	0.39492639	0.012523615	0.41880225	0.41864352	0.13296771	0.32401013	0.56789447	0.090567795	0.33915854	0.088544884	0.08812236	0.31889001	0.09997023	0.16837665	0.38135254	0.30157581	0.16131305	0.26178085	0.033727726	0.12170336	0.46773566	0.052319904	0.14511404
2519	25.18	0.2282097	0.67734564	-0.093134369	0.12442134	0.70892059	0.1406955	0.20269499	0.67412628	0.10683626	0.010503675	0.68311475	0.0046473994	0.13661615	0.70168091	-0.13773715	0.4074537	0.94468921	-0.0025903239	0.38808066	1.0482428	0.14006674	0.32704425	1.0273818	-0.20008478	0.39412427	0.97107092	0.095274879	0.40233398	0.95709198	-0.05681424	0.40823813	0.39448691	0.011595617	0.42056433	0.41838882	0.13189137	0.32764066	0.56895807	0.089954849	0.33917761	0.088399834	0.08783567	0.31910629	0.10002006	0.16810187	0.38233923	0.30130649	0.16062125	0.26179535	0.033743465	0.12166185	0.46788354	0.052321419	0.14541077
2520	25.19	0.23202069	0.68268433	-0.093224197	0.12800026	0.71355219	0.1407067	0.20625784	0.67962048	0.10668022	0.014524472	0.68795245	0.0040227695	0.14049588	0.70641669	-0.13847398	0.40769604	0.95327502	-0.0028100641	0.38706512	1.0562144	0.14014029	0.32648044	1.0346506	-0.20044873	0.39435049	0.97921216	0.095144287	0.40263931	0.96541113	-0.057086464	0.40926443	0.3941084	0.010785268	0.42217856	0.41818463	0.13093372	0.33115036	0.5700213	0.089416229	0.33919162	0.088273109	0.087584984	0.31929233	0.10006191	0.16785873	0.38320505	0.30105951	0.16002275	0.26180453	0.03375473	0.12162118	0.46800784	0.052319336	0.14566695
2521	25.2	0.23585373	0.68815283	-0.093359085	0.13155821	0.71828546	0.14065959	0.2098121	0.68522925	0.1064864	0.018562115	0.69287579	0.0033009956	0.14440628	0.71125555	-0.13924226	0.40781317	0.96199066	-0.0030165579	0.38588733	1.0643027	0.14021724	0.32578125	1.0419797	-0.20082173	0.39445624	0.98748145	0.095036911	0.40283615	0.97386407	-0.057354343	0.41017194	0.39379193	0.010090057	0.4236488	0.41803098	0.13009485	0.33454266	0.57108289	0.088946922	0.33920084	0.08816468	0.087369759	0.31944901	0.10009628	0.1676474	0.38395389	0.30083688	0.1595162	0.26180896	0.033762016	0.1215826	0.46810233	0.052298786	0.14586147
